<?xml version="1.0" encoding="UTF-8" standalone="no"?>
<!DOCTYPE svg PUBLIC "-//W3C//DTD SVG 20010904//EN"
              "http://www.w3.org/TR/2001/REC-SVG-20010904/DTD/svg10.dtd">

<svg xmlns="http://www.w3.org/2000/svg"
     width="5.92668mm" height="7.62002mm"
     viewBox="0 0 70 90">
  <path id="Selection"
        fill="none" stroke="black" stroke-width="1"
        d="M 37.00,1.00
           C 44.50,2.60 48.66,8.80 50.32,16.00
             50.32,16.00 51.60,23.87 51.60,23.87
             53.05,27.28 56.42,27.47 59.96,30.39
             64.14,33.85 67.01,40.56 66.80,46.00
             66.51,53.74 59.52,53.41 57.01,57.27
             56.01,58.82 55.38,62.97 54.84,65.00
             53.53,69.99 50.25,77.04 50.82,82.00
             50.93,83.65 51.87,85.86 50.82,87.33
             49.36,89.75 42.65,89.31 40.99,87.33
             39.74,85.72 40.01,81.95 40.00,80.00
             40.00,80.00 35.00,81.00 35.00,81.00
             39.02,90.77 32.74,89.02 22.00,89.00
             20.05,89.00 16.87,89.12 15.10,88.40
             11.43,86.91 3.80,77.07 3.21,73.00
             2.55,68.36 4.10,66.10 5.41,62.00
             8.08,53.63 9.14,47.45 17.01,41.80
             28.78,33.37 34.38,42.49 39.00,30.00
             29.28,25.40 26.22,16.08 26.00,6.00
             26.00,6.00 36.00,7.00 36.00,7.00
             36.00,7.00 37.00,1.00 37.00,1.00 Z" />
</svg>
